<svg width="1679" height="534" viewBox="0 0 1679 534" fill="none" xmlns="http://www.w3.org/2000/svg">
<path d="M460.878 412V406.561C470.202 406.561 475.641 404.834 477.195 401.381V271.104C475.641 267.651 470.202 265.924 460.878 265.924V260.485H517.34V265.924C508.016 265.924 502.577 267.651 501.023 271.104V401.381C502.577 404.834 508.016 406.561 517.34 406.561V412H460.878ZM534.92 412V406.561C544.244 406.561 549.683 404.834 551.237 401.381V313.839C540.531 312.976 535.092 312.544 534.92 312.544V306.587C538.2 306.587 544.589 304.774 554.086 301.148C563.755 297.349 570.575 295.45 574.547 295.45V307.364C583.871 299.421 594.144 295.45 605.368 295.45C621.426 295.45 632.994 298.472 640.074 304.515C647.326 310.386 650.952 319.623 650.952 332.228V401.381C652.506 404.834 657.945 406.561 667.269 406.561V412H611.325V406.561C620.649 406.561 626.088 404.834 627.642 401.381V330.415C627.642 312.976 619.699 304.256 603.814 304.256C592.936 304.256 583.18 308.055 574.547 315.652V401.381C576.101 404.834 581.54 406.561 590.864 406.561V412H534.92ZM764.572 300.63V267.219C764.572 267.219 759.133 266.787 748.255 265.924V259.967C751.535 259.967 757.924 258.154 767.421 254.528C777.09 250.729 783.91 248.83 787.882 248.83V396.201L804.199 397.496V403.453C800.918 403.453 794.443 405.352 784.774 409.151C775.277 412.777 768.543 414.59 764.572 414.59V406.043C756.284 411.741 745.924 414.59 733.492 414.59C727.794 414.59 722.096 413.64 716.398 411.741C710.872 409.669 705.261 406.561 699.563 402.417C694.037 398.1 689.462 391.798 685.836 383.51C682.382 375.222 680.656 365.553 680.656 354.502C680.656 335.163 686.008 320.314 696.714 309.954C707.592 299.594 721.75 294.414 739.19 294.414C749.032 294.414 757.492 296.486 764.572 300.63ZM764.572 308.659C758.356 305.033 750.413 303.22 740.744 303.22C731.247 303.22 722.959 307.796 715.88 316.947C708.8 326.098 705.261 338.617 705.261 354.502C705.261 365.035 708.282 376.258 714.326 388.172C720.542 399.913 727.794 405.784 736.082 405.784C747.478 405.784 756.974 403.021 764.572 397.496V308.659ZM817.695 412V406.561C827.019 406.561 832.458 404.834 834.012 401.381V313.839C823.307 312.976 817.868 312.544 817.695 312.544V306.587C820.976 306.587 827.364 304.774 836.861 301.148C846.53 297.349 853.351 295.45 857.322 295.45V401.381C858.876 404.834 864.315 406.561 873.639 406.561V412H817.695ZM844.89 278.874C841.091 278.874 837.724 277.493 834.789 274.73C832.026 271.795 830.645 268.082 830.645 263.593C830.645 259.622 831.854 256.168 834.271 253.233C836.861 250.298 840.142 248.83 844.113 248.83C847.912 248.83 851.279 250.298 854.214 253.233C857.149 256.168 858.617 259.881 858.617 264.37C858.617 268.341 857.322 271.795 854.732 274.73C852.142 277.493 848.861 278.874 844.89 278.874ZM912.41 349.581C912.583 364.085 916.727 376.949 924.842 388.172C933.13 399.223 942.368 404.748 952.555 404.748C967.577 404.748 979.664 399.05 988.815 387.654L995.031 390.762C990.024 399.05 983.462 405.093 975.347 408.892C967.404 412.691 956.872 414.59 943.749 414.59C937.188 414.59 930.885 413.64 924.842 411.741C918.799 409.669 912.842 406.388 906.971 401.899C901.1 397.237 896.438 390.417 892.985 381.438C889.532 372.459 887.805 361.754 887.805 349.322C887.805 334.127 892.467 321.35 901.791 310.99C911.288 300.63 924.41 295.45 941.159 295.45C959.462 295.45 973.102 300.63 982.081 310.99C991.06 321.177 995.549 334.041 995.549 349.581H912.41ZM912.669 341.552H970.167C969.131 329.12 966.455 319.623 962.138 313.062C957.994 306.501 950.656 303.22 940.123 303.22C934.08 303.22 928.209 306.76 922.511 313.839C916.986 320.918 913.705 330.156 912.669 341.552ZM1097.12 266.701C1082.27 266.701 1069.49 273.694 1058.79 287.68C1048.08 301.493 1042.73 318.242 1042.73 337.926C1042.73 349.84 1044.28 360.373 1047.39 369.524C1050.5 378.675 1054.64 385.841 1059.82 391.021C1065 396.028 1070.44 399.741 1076.14 402.158C1081.84 404.575 1087.62 405.784 1093.49 405.784C1103.16 405.784 1112.31 404.144 1120.95 400.863V347.768C1119.39 344.315 1113.95 342.588 1104.63 342.588V337.149H1161.09V342.588C1151.77 342.588 1146.33 344.315 1144.78 347.768V391.28C1141.84 396.805 1135.88 402.072 1126.9 407.079C1118.1 412.086 1106.79 414.59 1092.98 414.59C1069.84 414.59 1051.19 407.079 1037.03 392.057C1022.87 377.035 1015.79 359.164 1015.79 338.444C1015.79 314.443 1023.91 295.018 1040.14 280.169C1056.37 265.32 1075.28 257.895 1096.86 257.895C1101.87 257.895 1108.08 259.19 1115.51 261.78C1122.93 264.37 1127.16 265.665 1128.2 265.665C1130.27 265.665 1131.31 263.938 1131.31 260.485H1137.26L1139.85 293.378H1134.16C1133.12 285.781 1129.32 279.478 1122.76 274.471C1116.2 269.291 1107.65 266.701 1097.12 266.701ZM1172.05 412V406.561C1181.37 406.561 1186.81 404.834 1188.37 401.381V313.839C1177.66 312.976 1172.22 312.544 1172.05 312.544V306.587C1175.33 306.587 1181.72 304.774 1191.22 301.148C1200.88 297.349 1207.71 295.45 1211.68 295.45V306.846C1220.31 299.249 1228.86 295.45 1237.32 295.45C1245.09 295.45 1251.56 296.918 1256.74 299.853C1262.1 302.788 1264.77 306.069 1264.77 309.695C1264.77 315.911 1261.32 319.019 1254.41 319.019C1250.79 319.019 1247.5 316.602 1244.57 311.767C1241.63 306.76 1238.27 304.256 1234.47 304.256C1227.73 304.256 1220.14 307.968 1211.68 315.393V401.381C1213.23 404.834 1218.67 406.561 1227.99 406.561V412H1172.05ZM1299.9 347.768C1299.9 367.452 1303.62 382.215 1311.04 392.057C1318.64 401.899 1328.31 406.82 1340.05 406.82C1349.37 406.82 1356.88 402.676 1362.58 394.388C1368.28 385.927 1371.13 375.136 1371.13 362.013C1371.13 322.99 1357.58 303.479 1330.47 303.479C1321.32 303.479 1313.89 307.882 1308.19 316.688C1302.67 325.321 1299.9 335.681 1299.9 347.768ZM1336.68 414.59C1317.34 414.59 1302.24 408.978 1291.36 397.755C1280.48 386.359 1275.04 371.423 1275.04 352.948C1275.04 336.199 1279.96 322.472 1289.8 311.767C1299.65 300.889 1314.67 295.45 1334.87 295.45C1355.24 295.45 1370.53 300.889 1380.71 311.767C1390.9 322.472 1395.99 337.235 1395.99 356.056C1395.99 372.805 1391.07 386.791 1381.23 398.014C1371.56 409.065 1356.71 414.59 1336.68 414.59ZM1452.24 298.04V303.479C1447.24 303.479 1443.61 303.824 1441.36 304.515L1472.19 380.402L1495.5 322.127L1490.06 308.659C1488.5 305.206 1483.06 303.479 1473.74 303.479V298.04H1523.99V303.479C1518.98 303.479 1515.35 303.824 1513.11 304.515L1543.93 380.402L1573.45 306.328C1571.04 304.429 1566.2 303.479 1558.95 303.479V298.04H1601.43V303.479C1592.1 303.479 1586.75 305.119 1585.37 308.4L1543.93 412H1531.24L1501.71 337.926L1472.19 412H1459.49L1418.31 308.659C1416.76 305.206 1411.32 303.479 1402 303.479V298.04H1452.24Z" fill="#F5FFC9"/>
<path d="M85.6491 467.275H128.319V475.52H126.534C126.534 472.46 125.967 470.675 124.834 470.165H110.894V513.515C111.404 514.648 113.189 515.215 116.249 515.215V517H97.7191V515.215C100.779 515.215 102.564 514.648 103.074 513.515V470.165H89.1341C88.0008 470.675 87.4341 472.46 87.4341 475.52H85.6491V467.275ZM127.013 517V515.215C130.073 515.215 131.858 514.648 132.368 513.515V484.785C128.855 484.502 127.07 484.36 127.013 484.36V482.405C128.09 482.405 130.186 481.81 133.303 480.62C136.476 479.373 138.715 478.75 140.018 478.75V482.49C142.851 479.997 145.656 478.75 148.433 478.75C150.983 478.75 153.108 479.232 154.808 480.195C156.565 481.158 157.443 482.235 157.443 483.425C157.443 485.465 156.31 486.485 154.043 486.485C152.853 486.485 151.776 485.692 150.813 484.105C149.85 482.462 148.745 481.64 147.498 481.64C145.288 481.64 142.795 482.858 140.018 485.295V513.515C140.528 514.648 142.313 515.215 145.373 515.215V517H127.013ZM167.433 485.89C168.226 485.89 168.906 486.173 169.473 486.74C170.096 487.307 170.408 488.185 170.408 489.375C170.408 490.338 170.011 491.075 169.218 491.585C168.481 492.095 167.603 492.35 166.583 492.35C165.506 492.35 164.628 491.982 163.948 491.245C163.268 490.452 162.928 489.403 162.928 488.1C162.928 485.153 164.146 482.858 166.583 481.215C169.02 479.572 172.476 478.75 176.953 478.75C182.223 478.75 186.076 480.053 188.513 482.66C191.006 485.267 192.253 488.723 192.253 493.03V509.86C192.253 511.673 192.536 513.005 193.103 513.855C193.726 514.705 194.463 515.13 195.313 515.13C196.05 515.13 196.701 514.932 197.268 514.535C197.891 514.138 198.203 513.657 198.203 513.09H199.733C199.733 514.677 199.138 515.838 197.948 516.575C196.815 517.312 194.803 517.68 191.913 517.68C189.08 517.68 187.068 516.518 185.878 514.195C182.535 516.632 178.37 517.85 173.383 517.85C164.883 517.85 160.633 514.393 160.633 507.48C160.633 506.007 161.143 504.675 162.163 503.485C163.24 502.295 164.77 501.303 166.753 500.51C168.736 499.717 170.606 499.093 172.363 498.64C174.12 498.13 176.301 497.592 178.908 497.025C181.571 496.402 183.47 495.92 184.603 495.58C184.603 490.82 183.98 487.335 182.733 485.125C181.486 482.915 179.276 481.81 176.103 481.81C171.003 481.81 168.113 483.17 167.433 485.89ZM185.113 512.07C184.773 510.823 184.603 509.293 184.603 507.48V497.45C183.98 497.677 182.903 497.988 181.373 498.385C179.9 498.782 178.681 499.122 177.718 499.405C176.811 499.688 175.706 500.113 174.403 500.68C173.1 501.247 172.08 501.813 171.343 502.38C170.606 502.947 169.955 503.712 169.388 504.675C168.821 505.582 168.538 506.573 168.538 507.65C168.538 510.37 169.048 512.268 170.068 513.345C171.145 514.422 172.731 514.96 174.828 514.96C178.568 514.96 181.996 513.997 185.113 512.07ZM201.637 517V515.215C204.697 515.215 206.482 514.648 206.992 513.515V484.785C203.479 484.502 201.694 484.36 201.637 484.36V482.405C202.714 482.405 204.81 481.81 207.927 480.62C211.1 479.373 213.339 478.75 214.642 478.75V482.66C217.702 480.053 221.074 478.75 224.757 478.75C230.027 478.75 233.824 479.742 236.147 481.725C238.527 483.652 239.717 486.683 239.717 490.82V513.515C240.227 514.648 242.012 515.215 245.072 515.215V517H226.712V515.215C229.772 515.215 231.557 514.648 232.067 513.515V490.225C232.067 484.502 229.46 481.64 224.247 481.64C220.677 481.64 217.475 482.887 214.642 485.38V513.515C215.152 514.648 216.937 515.215 219.997 515.215V517H201.637ZM264.077 515.3C265.664 515.3 267.392 514.79 269.262 513.77C271.189 512.75 272.152 511.22 272.152 509.18C272.152 505.893 268.781 503.06 262.037 500.68C260.394 500.113 259.034 499.575 257.957 499.065C256.937 498.555 255.804 497.847 254.557 496.94C253.311 496.033 252.376 494.928 251.752 493.625C251.129 492.322 250.817 490.792 250.817 489.035C250.817 485.862 251.979 483.368 254.302 481.555C256.626 479.685 259.431 478.75 262.717 478.75C264.644 478.75 266.599 479.175 268.582 480.025C270.622 480.875 271.784 481.3 272.067 481.3C272.747 481.3 273.087 480.733 273.087 479.6H275.042V489.8H273.172C272.832 487.42 271.671 485.408 269.687 483.765C267.761 482.122 265.522 481.3 262.972 481.3C261.159 481.3 259.629 481.725 258.382 482.575C257.192 483.425 256.597 484.587 256.597 486.06C256.597 486.91 256.767 487.703 257.107 488.44C257.447 489.12 257.787 489.687 258.127 490.14C258.467 490.537 259.091 490.99 259.997 491.5C260.961 492.01 261.669 492.378 262.122 492.605C262.632 492.775 263.511 493.087 264.757 493.54C266.061 493.993 266.939 494.305 267.392 494.475C270.339 495.608 272.861 497.223 274.957 499.32C277.054 501.36 278.102 503.74 278.102 506.46C278.102 509.917 276.714 512.693 273.937 514.79C271.161 516.83 267.647 517.85 263.397 517.85C261.357 517.85 259.374 517.368 257.447 516.405C255.521 515.442 254.444 514.96 254.217 514.96C253.877 514.96 253.481 515.187 253.027 515.64C252.574 516.093 252.347 516.547 252.347 517H250.307V505.015H252.177C252.574 507.905 253.906 510.342 256.172 512.325C258.496 514.308 261.131 515.3 264.077 515.3ZM309.151 468.465C309.151 469.428 308.811 470.193 308.131 470.76C307.507 471.327 306.686 471.61 305.666 471.61C304.702 471.61 303.966 471.327 303.456 470.76C303.002 470.137 302.719 469.485 302.606 468.805C302.549 468.125 302.294 467.502 301.841 466.935C301.444 466.312 300.792 466 299.886 466C298.809 466 297.902 466.822 297.166 468.465C296.486 470.108 296.146 472.46 296.146 475.52V479.6H301.416V482.15H296.146V513.515C296.656 514.648 298.441 515.215 301.501 515.215V517H283.141V515.215C286.201 515.215 287.986 514.648 288.496 513.515V482.15H284.246V479.6H288.496V476.71C288.496 472.063 289.459 468.692 291.386 466.595C293.312 464.498 295.862 463.45 299.036 463.45C302.379 463.45 304.901 463.96 306.601 464.98C308.301 466 309.151 467.162 309.151 468.465ZM315.15 495.92C315.15 502.38 316.368 507.225 318.805 510.455C321.298 513.685 324.471 515.3 328.325 515.3C331.385 515.3 333.85 513.94 335.72 511.22C337.59 508.443 338.525 504.902 338.525 500.595C338.525 487.788 334.076 481.385 325.18 481.385C322.176 481.385 319.74 482.83 317.87 485.72C316.056 488.553 315.15 491.953 315.15 495.92ZM327.22 517.85C320.873 517.85 315.915 516.008 312.345 512.325C308.775 508.585 306.99 503.683 306.99 497.62C306.99 492.123 308.605 487.618 311.835 484.105C315.065 480.535 319.995 478.75 326.625 478.75C333.311 478.75 338.326 480.535 341.67 484.105C345.013 487.618 346.685 492.463 346.685 498.64C346.685 504.137 345.07 508.727 341.84 512.41C338.666 516.037 333.793 517.85 327.22 517.85ZM352.628 517V515.215C355.688 515.215 357.473 514.648 357.983 513.515V484.785C354.47 484.502 352.685 484.36 352.628 484.36V482.405C353.705 482.405 355.801 481.81 358.918 480.62C362.091 479.373 364.33 478.75 365.633 478.75V482.49C368.466 479.997 371.271 478.75 374.048 478.75C376.598 478.75 378.723 479.232 380.423 480.195C382.18 481.158 383.058 482.235 383.058 483.425C383.058 485.465 381.925 486.485 379.658 486.485C378.468 486.485 377.391 485.692 376.428 484.105C375.465 482.462 374.36 481.64 373.113 481.64C370.903 481.64 368.41 482.858 365.633 485.295V513.515C366.143 514.648 367.928 515.215 370.988 515.215V517H352.628ZM386.163 517V515.215C389.223 515.215 391.008 514.648 391.518 513.515V484.785C388.005 484.502 386.22 484.36 386.163 484.36V482.405C387.24 482.405 389.337 481.81 392.453 480.62C395.627 479.373 397.865 478.75 399.168 478.75V482.575C402.172 480.025 405.317 478.75 408.603 478.75C415.403 478.75 419.767 480.393 421.693 483.68C424.867 480.393 428.408 478.75 432.318 478.75C441.838 478.75 446.598 481.98 446.598 488.44V513.515C447.108 514.648 448.893 515.215 451.953 515.215V517H433.593V515.215C436.653 515.215 438.438 514.648 438.948 513.515V491.585C438.948 487.902 438.41 485.323 437.333 483.85C436.257 482.377 434.415 481.64 431.808 481.64C428.465 481.64 425.377 483 422.543 485.72C422.77 486.457 422.883 487.363 422.883 488.44V513.515C423.393 514.648 425.178 515.215 428.238 515.215V517H409.878V515.215C412.938 515.215 414.723 514.648 415.233 513.515V491.585C415.233 487.902 414.695 485.323 413.618 483.85C412.542 482.377 410.7 481.64 408.093 481.64C404.863 481.64 401.888 482.887 399.168 485.38V513.515C399.678 514.648 401.463 515.215 404.523 515.215V517H386.163ZM456.139 517V515.215C459.199 515.215 460.984 514.648 461.494 513.515V484.785C457.981 484.502 456.196 484.36 456.139 484.36V482.405C457.216 482.405 459.312 481.81 462.429 480.62C465.602 479.373 467.841 478.75 469.144 478.75V513.515C469.654 514.648 471.439 515.215 474.499 515.215V517H456.139ZM465.064 473.31C463.817 473.31 462.712 472.857 461.749 471.95C460.842 470.987 460.389 469.768 460.389 468.295C460.389 466.992 460.786 465.858 461.579 464.895C462.429 463.932 463.506 463.45 464.809 463.45C466.056 463.45 467.161 463.932 468.124 464.895C469.087 465.858 469.569 467.077 469.569 468.55C469.569 469.853 469.144 470.987 468.294 471.95C467.444 472.857 466.367 473.31 465.064 473.31ZM478.883 517V515.215C481.943 515.215 483.728 514.648 484.238 513.515V484.785C480.725 484.502 478.94 484.36 478.883 484.36V482.405C479.96 482.405 482.056 481.81 485.173 480.62C488.346 479.373 490.585 478.75 491.888 478.75V482.66C494.948 480.053 498.32 478.75 502.003 478.75C507.273 478.75 511.07 479.742 513.393 481.725C515.773 483.652 516.963 486.683 516.963 490.82V513.515C517.473 514.648 519.258 515.215 522.318 515.215V517H503.958V515.215C507.018 515.215 508.803 514.648 509.313 513.515V490.225C509.313 484.502 506.706 481.64 501.493 481.64C497.923 481.64 494.721 482.887 491.888 485.38V513.515C492.398 514.648 494.183 515.215 497.243 515.215V517H478.883ZM561.816 478.75V514.535C561.816 520.372 560.4 525.075 557.566 528.645C554.79 532.215 550.71 534 545.326 534C540.51 534 536.628 533.178 533.681 531.535C530.791 529.892 529.346 528.163 529.346 526.35C529.346 525.047 529.686 523.998 530.366 523.205C531.046 522.468 531.925 522.1 533.001 522.1C534.021 522.1 534.9 522.355 535.636 522.865C536.43 523.375 536.826 524.112 536.826 525.075C536.826 526.888 536.118 528.078 534.701 528.645C536.231 530.175 539.49 530.94 544.476 530.94C550.313 530.94 553.515 525.727 554.081 515.3C551.475 517 548.131 517.85 544.051 517.85C542.181 517.85 540.311 517.567 538.441 517C536.628 516.377 534.786 515.385 532.916 514.025C531.103 512.665 529.601 510.653 528.411 507.99C527.278 505.27 526.711 502.097 526.711 498.47C526.711 492.123 528.468 487.25 531.981 483.85C535.551 480.45 540.198 478.75 545.921 478.75C549.491 478.75 552.608 479.657 555.271 481.47C558.161 479.657 560.343 478.75 561.816 478.75ZM554.166 512.495V511.475V483.425C552.126 482.235 549.548 481.64 546.431 481.64C543.315 481.64 540.595 483.142 538.271 486.145C535.948 489.092 534.786 493.2 534.786 498.47C534.786 503.457 535.721 507.452 537.591 510.455C539.461 513.458 541.898 514.96 544.901 514.96C548.641 514.96 551.73 514.138 554.166 512.495ZM604.722 492.35V514.11H611.947C619.88 514.11 623.847 510.257 623.847 502.55C623.847 499.887 622.855 497.535 620.872 495.495C618.888 493.398 615.573 492.35 610.927 492.35H604.722ZM604.722 470.165V489.885H608.207C616.14 489.885 620.107 486.287 620.107 479.09C620.107 473.14 615.8 470.165 607.187 470.165H604.722ZM591.547 517V515.215C594.607 515.215 596.392 514.648 596.902 513.515V470.76C596.392 469.627 594.607 469.06 591.547 469.06V467.275H607.187C614.27 467.275 619.597 468.437 623.167 470.76C626.793 473.083 628.607 475.832 628.607 479.005C628.607 484.785 625.603 488.695 619.597 490.735C623.847 491.698 627.02 493.285 629.117 495.495C631.27 497.648 632.347 499.972 632.347 502.465C632.347 506.772 630.618 510.285 627.162 513.005C623.762 515.668 618.69 517 611.947 517H591.547ZM674.484 511.815C674.484 511.815 676.269 511.957 679.839 512.24V514.195C678.762 514.195 676.637 514.818 673.464 516.065C670.347 517.255 668.137 517.85 666.834 517.85V513.94C663.774 516.547 660.402 517.85 656.719 517.85C651.449 517.85 647.624 516.887 645.244 514.96C642.921 512.977 641.759 509.917 641.759 505.78V483.085C641.249 481.952 639.464 481.385 636.404 481.385V479.6H649.409V506.375C649.409 512.098 652.016 514.96 657.229 514.96C660.799 514.96 664.001 513.713 666.834 511.22V483.085C666.324 481.952 664.539 481.385 661.479 481.385V479.6H674.484V511.815ZM699.287 515.3C700.874 515.3 702.602 514.79 704.472 513.77C706.399 512.75 707.362 511.22 707.362 509.18C707.362 505.893 703.991 503.06 697.247 500.68C695.604 500.113 694.244 499.575 693.167 499.065C692.147 498.555 691.014 497.847 689.767 496.94C688.521 496.033 687.586 494.928 686.962 493.625C686.339 492.322 686.027 490.792 686.027 489.035C686.027 485.862 687.189 483.368 689.512 481.555C691.836 479.685 694.641 478.75 697.927 478.75C699.854 478.75 701.809 479.175 703.792 480.025C705.832 480.875 706.994 481.3 707.277 481.3C707.957 481.3 708.297 480.733 708.297 479.6H710.252V489.8H708.382C708.042 487.42 706.881 485.408 704.897 483.765C702.971 482.122 700.732 481.3 698.182 481.3C696.369 481.3 694.839 481.725 693.592 482.575C692.402 483.425 691.807 484.587 691.807 486.06C691.807 486.91 691.977 487.703 692.317 488.44C692.657 489.12 692.997 489.687 693.337 490.14C693.677 490.537 694.301 490.99 695.207 491.5C696.171 492.01 696.879 492.378 697.332 492.605C697.842 492.775 698.721 493.087 699.967 493.54C701.271 493.993 702.149 494.305 702.602 494.475C705.549 495.608 708.071 497.223 710.167 499.32C712.264 501.36 713.312 503.74 713.312 506.46C713.312 509.917 711.924 512.693 709.147 514.79C706.371 516.83 702.857 517.85 698.607 517.85C696.567 517.85 694.584 517.368 692.657 516.405C690.731 515.442 689.654 514.96 689.427 514.96C689.087 514.96 688.691 515.187 688.237 515.64C687.784 516.093 687.557 516.547 687.557 517H685.517V505.015H687.387C687.784 507.905 689.116 510.342 691.382 512.325C693.706 514.308 696.341 515.3 699.287 515.3ZM718.776 517V515.215C721.836 515.215 723.621 514.648 724.131 513.515V484.785C720.617 484.502 718.832 484.36 718.776 484.36V482.405C719.852 482.405 721.949 481.81 725.066 480.62C728.239 479.373 730.477 478.75 731.781 478.75V513.515C732.291 514.648 734.076 515.215 737.136 515.215V517H718.776ZM727.701 473.31C726.454 473.31 725.349 472.857 724.386 471.95C723.479 470.987 723.026 469.768 723.026 468.295C723.026 466.992 723.422 465.858 724.216 464.895C725.066 463.932 726.142 463.45 727.446 463.45C728.692 463.45 729.797 463.932 730.761 464.895C731.724 465.858 732.206 467.077 732.206 468.55C732.206 469.853 731.781 470.987 730.931 471.95C730.081 472.857 729.004 473.31 727.701 473.31ZM741.52 517V515.215C744.58 515.215 746.365 514.648 746.875 513.515V484.785C743.361 484.502 741.576 484.36 741.52 484.36V482.405C742.596 482.405 744.693 481.81 747.81 480.62C750.983 479.373 753.221 478.75 754.525 478.75V482.66C757.585 480.053 760.956 478.75 764.64 478.75C769.91 478.75 773.706 479.742 776.03 481.725C778.41 483.652 779.6 486.683 779.6 490.82V513.515C780.11 514.648 781.895 515.215 784.955 515.215V517H766.595V515.215C769.655 515.215 771.44 514.648 771.95 513.515V490.225C771.95 484.502 769.343 481.64 764.13 481.64C760.56 481.64 757.358 482.887 754.525 485.38V513.515C755.035 514.648 756.82 515.215 759.88 515.215V517H741.52ZM797.423 496.515C797.48 501.275 798.84 505.497 801.503 509.18C804.223 512.807 807.255 514.62 810.598 514.62C815.528 514.62 819.495 512.75 822.498 509.01L824.538 510.03C822.895 512.75 820.742 514.733 818.078 515.98C815.472 517.227 812.015 517.85 807.708 517.85C805.555 517.85 803.487 517.538 801.503 516.915C799.52 516.235 797.565 515.158 795.638 513.685C793.712 512.155 792.182 509.917 791.048 506.97C789.915 504.023 789.348 500.51 789.348 496.43C789.348 491.443 790.878 487.25 793.938 483.85C797.055 480.45 801.362 478.75 806.858 478.75C812.865 478.75 817.342 480.45 820.288 483.85C823.235 487.193 824.708 491.415 824.708 496.515H797.423ZM797.508 493.88H816.378C816.038 489.8 815.16 486.683 813.743 484.53C812.383 482.377 809.975 481.3 806.518 481.3C804.535 481.3 802.608 482.462 800.738 484.785C798.925 487.108 797.848 490.14 797.508 493.88ZM845.547 515.3C847.134 515.3 848.862 514.79 850.732 513.77C852.659 512.75 853.622 511.22 853.622 509.18C853.622 505.893 850.25 503.06 843.507 500.68C841.864 500.113 840.504 499.575 839.427 499.065C838.407 498.555 837.274 497.847 836.027 496.94C834.78 496.033 833.845 494.928 833.222 493.625C832.599 492.322 832.287 490.792 832.287 489.035C832.287 485.862 833.449 483.368 835.772 481.555C838.095 479.685 840.9 478.75 844.187 478.75C846.114 478.75 848.069 479.175 850.052 480.025C852.092 480.875 853.254 481.3 853.537 481.3C854.217 481.3 854.557 480.733 854.557 479.6H856.512V489.8H854.642C854.302 487.42 853.14 485.408 851.157 483.765C849.23 482.122 846.992 481.3 844.442 481.3C842.629 481.3 841.099 481.725 839.852 482.575C838.662 483.425 838.067 484.587 838.067 486.06C838.067 486.91 838.237 487.703 838.577 488.44C838.917 489.12 839.257 489.687 839.597 490.14C839.937 490.537 840.56 490.99 841.467 491.5C842.43 492.01 843.139 492.378 843.592 492.605C844.102 492.775 844.98 493.087 846.227 493.54C847.53 493.993 848.409 494.305 848.862 494.475C851.809 495.608 854.33 497.223 856.427 499.32C858.524 501.36 859.572 503.74 859.572 506.46C859.572 509.917 858.184 512.693 855.407 514.79C852.63 516.83 849.117 517.85 844.867 517.85C842.827 517.85 840.844 517.368 838.917 516.405C836.99 515.442 835.914 514.96 835.687 514.96C835.347 514.96 834.95 515.187 834.497 515.64C834.044 516.093 833.817 516.547 833.817 517H831.777V505.015H833.647C834.044 507.905 835.375 510.342 837.642 512.325C839.965 514.308 842.6 515.3 845.547 515.3ZM879.995 515.3C881.582 515.3 883.31 514.79 885.18 513.77C887.107 512.75 888.07 511.22 888.07 509.18C888.07 505.893 884.699 503.06 877.955 500.68C876.312 500.113 874.952 499.575 873.875 499.065C872.855 498.555 871.722 497.847 870.475 496.94C869.229 496.033 868.294 494.928 867.67 493.625C867.047 492.322 866.735 490.792 866.735 489.035C866.735 485.862 867.897 483.368 870.22 481.555C872.544 479.685 875.349 478.75 878.635 478.75C880.562 478.75 882.517 479.175 884.5 480.025C886.54 480.875 887.702 481.3 887.985 481.3C888.665 481.3 889.005 480.733 889.005 479.6H890.96V489.8H889.09C888.75 487.42 887.589 485.408 885.605 483.765C883.679 482.122 881.44 481.3 878.89 481.3C877.077 481.3 875.547 481.725 874.3 482.575C873.11 483.425 872.515 484.587 872.515 486.06C872.515 486.91 872.685 487.703 873.025 488.44C873.365 489.12 873.705 489.687 874.045 490.14C874.385 490.537 875.009 490.99 875.915 491.5C876.879 492.01 877.587 492.378 878.04 492.605C878.55 492.775 879.429 493.087 880.675 493.54C881.979 493.993 882.857 494.305 883.31 494.475C886.257 495.608 888.779 497.223 890.875 499.32C892.972 501.36 894.02 503.74 894.02 506.46C894.02 509.917 892.632 512.693 889.855 514.79C887.079 516.83 883.565 517.85 879.315 517.85C877.275 517.85 875.292 517.368 873.365 516.405C871.439 515.442 870.362 514.96 870.135 514.96C869.795 514.96 869.399 515.187 868.945 515.64C868.492 516.093 868.265 516.547 868.265 517H866.225V505.015H868.095C868.492 507.905 869.824 510.342 872.09 512.325C874.414 514.308 877.049 515.3 879.995 515.3ZM908.239 496.515C908.295 501.275 909.655 505.497 912.319 509.18C915.039 512.807 918.07 514.62 921.414 514.62C926.344 514.62 930.31 512.75 933.314 509.01L935.354 510.03C933.71 512.75 931.557 514.733 928.894 515.98C926.287 517.227 922.83 517.85 918.524 517.85C916.37 517.85 914.302 517.538 912.319 516.915C910.335 516.235 908.38 515.158 906.454 513.685C904.527 512.155 902.997 509.917 901.864 506.97C900.73 504.023 900.164 500.51 900.164 496.43C900.164 491.443 901.694 487.25 904.754 483.85C907.87 480.45 912.177 478.75 917.674 478.75C923.68 478.75 928.157 480.45 931.104 483.85C934.05 487.193 935.524 491.415 935.524 496.515H908.239ZM908.324 493.88H927.194C926.854 489.8 925.975 486.683 924.559 484.53C923.199 482.377 920.79 481.3 917.334 481.3C915.35 481.3 913.424 482.462 911.554 484.785C909.74 487.108 908.664 490.14 908.324 493.88ZM956.363 515.3C957.949 515.3 959.678 514.79 961.548 513.77C963.474 512.75 964.438 511.22 964.438 509.18C964.438 505.893 961.066 503.06 954.323 500.68C952.679 500.113 951.319 499.575 950.243 499.065C949.223 498.555 948.089 497.847 946.843 496.94C945.596 496.033 944.661 494.928 944.038 493.625C943.414 492.322 943.103 490.792 943.103 489.035C943.103 485.862 944.264 483.368 946.588 481.555C948.911 479.685 951.716 478.75 955.003 478.75C956.929 478.75 958.884 479.175 960.868 480.025C962.908 480.875 964.069 481.3 964.353 481.3C965.033 481.3 965.373 480.733 965.373 479.6H967.328V489.8H965.458C965.118 487.42 963.956 485.408 961.973 483.765C960.046 482.122 957.808 481.3 955.258 481.3C953.444 481.3 951.914 481.725 950.668 482.575C949.478 483.425 948.883 484.587 948.883 486.06C948.883 486.91 949.053 487.703 949.393 488.44C949.733 489.12 950.073 489.687 950.413 490.14C950.753 490.537 951.376 490.99 952.283 491.5C953.246 492.01 953.954 492.378 954.408 492.605C954.918 492.775 955.796 493.087 957.043 493.54C958.346 493.993 959.224 494.305 959.678 494.475C962.624 495.608 965.146 497.223 967.243 499.32C969.339 501.36 970.388 503.74 970.388 506.46C970.388 509.917 968.999 512.693 966.223 514.79C963.446 516.83 959.933 517.85 955.683 517.85C953.643 517.85 951.659 517.368 949.733 516.405C947.806 515.442 946.729 514.96 946.503 514.96C946.163 514.96 945.766 515.187 945.313 515.64C944.859 516.093 944.633 516.547 944.633 517H942.593V505.015H944.463C944.859 507.905 946.191 510.342 948.458 512.325C950.781 514.308 953.416 515.3 956.363 515.3ZM981.801 517.51C980.554 517.51 979.506 517.142 978.656 516.405C977.862 515.668 977.466 514.648 977.466 513.345C977.466 511.815 978.004 510.625 979.081 509.775C980.157 508.925 981.234 508.5 982.311 508.5C984.351 508.5 985.994 509.407 987.241 511.22C988.544 512.977 989.196 515.073 989.196 517.51C989.196 522.27 985.682 525.755 978.656 527.965V525.585C980.072 525.415 981.517 524.622 982.991 523.205C984.521 521.845 985.286 520.287 985.286 518.53C985.286 517.51 985.229 516.915 985.116 516.745C985.002 516.518 984.776 516.405 984.436 516.405C984.266 516.405 983.926 516.603 983.416 517C982.962 517.34 982.424 517.51 981.801 517.51ZM1042.64 469.315C1037.76 469.315 1033.71 471.327 1030.48 475.35C1027.25 479.373 1025.64 484.587 1025.64 490.99C1025.64 498.47 1027.34 504.335 1030.74 508.585C1034.14 512.835 1038.22 514.96 1042.98 514.96C1045.81 514.96 1048.61 513.997 1051.39 512.07C1054.17 510.087 1055.95 507.99 1056.75 505.78L1058.79 506.8C1057.48 509.917 1055.41 512.552 1052.58 514.705C1049.8 516.802 1046.04 517.85 1041.28 517.85C1033.74 517.85 1027.76 515.413 1023.34 510.54C1018.98 505.61 1016.8 499.717 1016.8 492.86C1016.8 484.927 1019.32 478.552 1024.36 473.735C1029.46 468.862 1035.52 466.425 1042.55 466.425C1044.19 466.425 1046.09 466.85 1048.25 467.7C1050.4 468.55 1051.65 468.975 1051.99 468.975C1052.67 468.975 1053.01 468.408 1053.01 467.275H1054.96L1055.81 478.07H1053.94C1053.54 475.52 1052.41 473.423 1050.54 471.78C1048.73 470.137 1046.09 469.315 1042.64 469.315ZM1070.48 485.89C1071.27 485.89 1071.95 486.173 1072.52 486.74C1073.14 487.307 1073.45 488.185 1073.45 489.375C1073.45 490.338 1073.05 491.075 1072.26 491.585C1071.52 492.095 1070.65 492.35 1069.63 492.35C1068.55 492.35 1067.67 491.982 1066.99 491.245C1066.31 490.452 1065.97 489.403 1065.97 488.1C1065.97 485.153 1067.19 482.858 1069.63 481.215C1072.06 479.572 1075.52 478.75 1080 478.75C1085.27 478.75 1089.12 480.053 1091.56 482.66C1094.05 485.267 1095.3 488.723 1095.3 493.03V509.86C1095.3 511.673 1095.58 513.005 1096.15 513.855C1096.77 514.705 1097.51 515.13 1098.36 515.13C1099.09 515.13 1099.74 514.932 1100.31 514.535C1100.93 514.138 1101.25 513.657 1101.25 513.09H1102.78C1102.78 514.677 1102.18 515.838 1100.99 516.575C1099.86 517.312 1097.85 517.68 1094.96 517.68C1092.12 517.68 1090.11 516.518 1088.92 514.195C1085.58 516.632 1081.41 517.85 1076.43 517.85C1067.93 517.85 1063.68 514.393 1063.68 507.48C1063.68 506.007 1064.19 504.675 1065.21 503.485C1066.28 502.295 1067.81 501.303 1069.8 500.51C1071.78 499.717 1073.65 499.093 1075.41 498.64C1077.16 498.13 1079.34 497.592 1081.95 497.025C1084.61 496.402 1086.51 495.92 1087.65 495.58C1087.65 490.82 1087.02 487.335 1085.78 485.125C1084.53 482.915 1082.32 481.81 1079.15 481.81C1074.05 481.81 1071.16 483.17 1070.48 485.89ZM1088.16 512.07C1087.82 510.823 1087.65 509.293 1087.65 507.48V497.45C1087.02 497.677 1085.95 497.988 1084.42 498.385C1082.94 498.782 1081.72 499.122 1080.76 499.405C1079.85 499.688 1078.75 500.113 1077.45 500.68C1076.14 501.247 1075.12 501.813 1074.39 502.38C1073.65 502.947 1073 503.712 1072.43 504.675C1071.86 505.582 1071.58 506.573 1071.58 507.65C1071.58 510.37 1072.09 512.268 1073.11 513.345C1074.19 514.422 1075.77 514.96 1077.87 514.96C1081.61 514.96 1085.04 513.997 1088.16 512.07ZM1117.34 467.275V479.6H1124.65V482.15H1117.34V509.18C1117.34 510.937 1117.66 512.297 1118.28 513.26C1118.9 514.167 1120.06 514.62 1121.76 514.62C1122.78 514.62 1123.8 514.138 1124.82 513.175C1125.9 512.155 1126.64 510.767 1127.03 509.01L1129.07 510.03C1127.88 515.243 1124.48 517.85 1118.87 517.85C1112.41 517.85 1109.18 514.733 1109.18 508.5V482.15H1103.23V479.6C1105.9 479.6 1108.31 478.495 1110.46 476.285C1112.61 474.075 1113.69 471.072 1113.69 467.275H1117.34ZM1139.87 485.89C1140.66 485.89 1141.34 486.173 1141.91 486.74C1142.53 487.307 1142.84 488.185 1142.84 489.375C1142.84 490.338 1142.45 491.075 1141.65 491.585C1140.92 492.095 1140.04 492.35 1139.02 492.35C1137.94 492.35 1137.06 491.982 1136.38 491.245C1135.7 490.452 1135.36 489.403 1135.36 488.1C1135.36 485.153 1136.58 482.858 1139.02 481.215C1141.46 479.572 1144.91 478.75 1149.39 478.75C1154.66 478.75 1158.51 480.053 1160.95 482.66C1163.44 485.267 1164.69 488.723 1164.69 493.03V509.86C1164.69 511.673 1164.97 513.005 1165.54 513.855C1166.16 514.705 1166.9 515.13 1167.75 515.13C1168.49 515.13 1169.14 514.932 1169.7 514.535C1170.33 514.138 1170.64 513.657 1170.64 513.09H1172.17C1172.17 514.677 1171.57 515.838 1170.38 516.575C1169.25 517.312 1167.24 517.68 1164.35 517.68C1161.52 517.68 1159.5 516.518 1158.31 514.195C1154.97 516.632 1150.81 517.85 1145.82 517.85C1137.32 517.85 1133.07 514.393 1133.07 507.48C1133.07 506.007 1133.58 504.675 1134.6 503.485C1135.68 502.295 1137.21 501.303 1139.19 500.51C1141.17 499.717 1143.04 499.093 1144.8 498.64C1146.56 498.13 1148.74 497.592 1151.34 497.025C1154.01 496.402 1155.91 495.92 1157.04 495.58C1157.04 490.82 1156.42 487.335 1155.17 485.125C1153.92 482.915 1151.71 481.81 1148.54 481.81C1143.44 481.81 1140.55 483.17 1139.87 485.89ZM1157.55 512.07C1157.21 510.823 1157.04 509.293 1157.04 507.48V497.45C1156.42 497.677 1155.34 497.988 1153.81 498.385C1152.34 498.782 1151.12 499.122 1150.15 499.405C1149.25 499.688 1148.14 500.113 1146.84 500.68C1145.54 501.247 1144.52 501.813 1143.78 502.38C1143.04 502.947 1142.39 503.712 1141.82 504.675C1141.26 505.582 1140.97 506.573 1140.97 507.65C1140.97 510.37 1141.48 512.268 1142.5 513.345C1143.58 514.422 1145.17 514.96 1147.26 514.96C1151 514.96 1154.43 513.997 1157.55 512.07ZM1173.22 517V515.215C1176.28 515.215 1178.07 514.648 1178.58 513.515V469.485C1175.07 469.202 1173.28 469.06 1173.22 469.06V467.105C1174.3 467.105 1176.4 466.51 1179.51 465.32C1182.69 464.073 1184.93 463.45 1186.23 463.45V513.515C1186.74 514.648 1188.52 515.215 1191.58 515.215V517H1173.22ZM1209.09 479.6V481.385C1207.44 481.385 1206.25 481.498 1205.52 481.725L1215.63 506.63L1225.32 482.32C1224.53 481.697 1222.94 481.385 1220.56 481.385V479.6H1234.5V481.385C1231.44 481.385 1229.68 481.895 1229.23 482.915L1212.15 525.67C1211.07 528.333 1209.68 530.26 1207.98 531.45C1206.34 532.697 1204.75 533.32 1203.22 533.32C1201.8 533.32 1200.67 532.952 1199.82 532.215C1199.03 531.478 1198.63 530.6 1198.63 529.58C1198.63 528.73 1198.91 527.965 1199.48 527.285C1200.1 526.605 1200.93 526.265 1201.95 526.265C1202.57 526.265 1203.22 526.492 1203.9 526.945C1204.58 527.455 1205.09 527.71 1205.43 527.71C1206.62 527.71 1207.41 527.2 1207.81 526.18L1211.47 517L1197.95 483.085C1197.44 481.952 1195.66 481.385 1192.6 481.385V479.6H1209.09ZM1267 517H1235.55L1258.08 482.15H1241.76C1240.63 482.66 1240.06 484.445 1240.06 487.505H1238.27V479.6H1267.68L1245.16 514.45H1263.52C1264.65 513.94 1265.22 512.155 1265.22 509.095H1267V517ZM1272.85 517V515.215C1275.91 515.215 1277.7 514.648 1278.21 513.515V484.785C1274.69 484.502 1272.91 484.36 1272.85 484.36V482.405C1273.93 482.405 1276.03 481.81 1279.14 480.62C1282.32 479.373 1284.55 478.75 1285.86 478.75V513.515C1286.37 514.648 1288.15 515.215 1291.21 515.215V517H1272.85ZM1281.78 473.31C1280.53 473.31 1279.43 472.857 1278.46 471.95C1277.56 470.987 1277.1 469.768 1277.1 468.295C1277.1 466.992 1277.5 465.858 1278.29 464.895C1279.14 463.932 1280.22 463.45 1281.52 463.45C1282.77 463.45 1283.87 463.932 1284.84 464.895C1285.8 465.858 1286.28 467.077 1286.28 468.55C1286.28 469.853 1285.86 470.987 1285.01 471.95C1284.16 472.857 1283.08 473.31 1281.78 473.31ZM1295.6 517V515.215C1298.66 515.215 1300.44 514.648 1300.95 513.515V484.785C1297.44 484.502 1295.65 484.36 1295.6 484.36V482.405C1296.67 482.405 1298.77 481.81 1301.89 480.62C1305.06 479.373 1307.3 478.75 1308.6 478.75V482.66C1311.66 480.053 1315.03 478.75 1318.72 478.75C1323.99 478.75 1327.78 479.742 1330.11 481.725C1332.49 483.652 1333.68 486.683 1333.68 490.82V513.515C1334.19 514.648 1335.97 515.215 1339.03 515.215V517H1320.67V515.215C1323.73 515.215 1325.52 514.648 1326.03 513.515V490.225C1326.03 484.502 1323.42 481.64 1318.21 481.64C1314.64 481.64 1311.44 482.887 1308.6 485.38V513.515C1309.11 514.648 1310.9 515.215 1313.96 515.215V517H1295.6ZM1378.53 478.75V514.535C1378.53 520.372 1377.11 525.075 1374.28 528.645C1371.5 532.215 1367.42 534 1362.04 534C1357.22 534 1353.34 533.178 1350.4 531.535C1347.51 529.892 1346.06 528.163 1346.06 526.35C1346.06 525.047 1346.4 523.998 1347.08 523.205C1347.76 522.468 1348.64 522.1 1349.72 522.1C1350.74 522.1 1351.61 522.355 1352.35 522.865C1353.14 523.375 1353.54 524.112 1353.54 525.075C1353.54 526.888 1352.83 528.078 1351.42 528.645C1352.95 530.175 1356.2 530.94 1361.19 530.94C1367.03 530.94 1370.23 525.727 1370.8 515.3C1368.19 517 1364.85 517.85 1360.77 517.85C1358.9 517.85 1357.03 517.567 1355.16 517C1353.34 516.377 1351.5 515.385 1349.63 514.025C1347.82 512.665 1346.32 510.653 1345.13 507.99C1343.99 505.27 1343.43 502.097 1343.43 498.47C1343.43 492.123 1345.18 487.25 1348.7 483.85C1352.27 480.45 1356.91 478.75 1362.64 478.75C1366.21 478.75 1369.32 479.657 1371.99 481.47C1374.88 479.657 1377.06 478.75 1378.53 478.75ZM1370.88 512.495V511.475V483.425C1368.84 482.235 1366.26 481.64 1363.15 481.64C1360.03 481.64 1357.31 483.142 1354.99 486.145C1352.66 489.092 1351.5 493.2 1351.5 498.47C1351.5 503.457 1352.44 507.452 1354.31 510.455C1356.18 513.458 1358.61 514.96 1361.62 514.96C1365.36 514.96 1368.44 514.138 1370.88 512.495ZM1434.78 469.315C1429.91 469.315 1425.71 471.61 1422.2 476.2C1418.69 480.733 1416.93 486.23 1416.93 492.69C1416.93 496.6 1417.44 500.057 1418.46 503.06C1419.48 506.063 1420.84 508.415 1422.54 510.115C1424.24 511.758 1426.03 512.977 1427.9 513.77C1429.77 514.563 1431.66 514.96 1433.59 514.96C1436.76 514.96 1439.77 514.422 1442.6 513.345V495.92C1442.09 494.787 1440.31 494.22 1437.25 494.22V492.435H1455.78V494.22C1452.72 494.22 1450.93 494.787 1450.42 495.92V510.2C1449.46 512.013 1447.5 513.742 1444.56 515.385C1441.67 517.028 1437.95 517.85 1433.42 517.85C1425.83 517.85 1419.71 515.385 1415.06 510.455C1410.41 505.525 1408.09 499.66 1408.09 492.86C1408.09 484.983 1410.75 478.608 1416.08 473.735C1421.41 468.862 1427.61 466.425 1434.7 466.425C1436.34 466.425 1438.38 466.85 1440.82 467.7C1443.25 468.55 1444.64 468.975 1444.98 468.975C1445.66 468.975 1446 468.408 1446 467.275H1447.96L1448.81 478.07H1446.94C1446.6 475.577 1445.35 473.508 1443.2 471.865C1441.04 470.165 1438.24 469.315 1434.78 469.315ZM1459.37 517V515.215C1462.43 515.215 1464.22 514.648 1464.73 513.515V484.785C1461.21 484.502 1459.43 484.36 1459.37 484.36V482.405C1460.45 482.405 1462.54 481.81 1465.66 480.62C1468.83 479.373 1471.07 478.75 1472.38 478.75V482.49C1475.21 479.997 1478.01 478.75 1480.79 478.75C1483.34 478.75 1485.47 479.232 1487.17 480.195C1488.92 481.158 1489.8 482.235 1489.8 483.425C1489.8 485.465 1488.67 486.485 1486.4 486.485C1485.21 486.485 1484.13 485.692 1483.17 484.105C1482.21 482.462 1481.1 481.64 1479.86 481.64C1477.65 481.64 1475.15 482.858 1472.38 485.295V513.515C1472.89 514.648 1474.67 515.215 1477.73 515.215V517H1459.37ZM1501.33 495.92C1501.33 502.38 1502.55 507.225 1504.99 510.455C1507.48 513.685 1510.65 515.3 1514.51 515.3C1517.57 515.3 1520.03 513.94 1521.9 511.22C1523.77 508.443 1524.71 504.902 1524.71 500.595C1524.71 487.788 1520.26 481.385 1511.36 481.385C1508.36 481.385 1505.92 482.83 1504.05 485.72C1502.24 488.553 1501.33 491.953 1501.33 495.92ZM1513.4 517.85C1507.05 517.85 1502.1 516.008 1498.53 512.325C1494.96 508.585 1493.17 503.683 1493.17 497.62C1493.17 492.123 1494.79 487.618 1498.02 484.105C1501.25 480.535 1506.18 478.75 1512.81 478.75C1519.49 478.75 1524.51 480.535 1527.85 484.105C1531.19 487.618 1532.87 492.463 1532.87 498.64C1532.87 504.137 1531.25 508.727 1528.02 512.41C1524.85 516.037 1519.97 517.85 1513.4 517.85ZM1551.33 479.6V481.385C1549.68 481.385 1548.49 481.498 1547.76 481.725L1557.87 506.63L1565.52 487.505L1563.74 483.085C1563.23 481.952 1561.44 481.385 1558.38 481.385V479.6H1574.87V481.385C1573.23 481.385 1572.04 481.498 1571.3 481.725L1581.42 506.63L1591.11 482.32C1590.31 481.697 1588.73 481.385 1586.35 481.385V479.6H1600.29V481.385C1597.23 481.385 1595.47 481.923 1595.02 483L1581.42 517H1577.25L1567.56 492.69L1557.87 517H1553.71L1540.19 483.085C1539.68 481.952 1537.9 481.385 1534.84 481.385V479.6H1551.33ZM1615.14 467.275V479.6H1622.45V482.15H1615.14V509.18C1615.14 510.937 1615.45 512.297 1616.08 513.26C1616.7 514.167 1617.86 514.62 1619.56 514.62C1620.58 514.62 1621.6 514.138 1622.62 513.175C1623.7 512.155 1624.44 510.767 1624.83 509.01L1626.87 510.03C1625.68 515.243 1622.28 517.85 1616.67 517.85C1610.21 517.85 1606.98 514.733 1606.98 508.5V482.15H1601.03V479.6C1603.7 479.6 1606.1 478.495 1608.26 476.285C1610.41 474.075 1611.49 471.072 1611.49 467.275H1615.14ZM1629.93 517V515.215C1632.99 515.215 1634.78 514.648 1635.29 513.515V469.485C1631.77 469.202 1629.99 469.06 1629.93 469.06V467.105C1631.01 467.105 1633.11 466.51 1636.22 465.32C1639.4 464.073 1641.63 463.45 1642.94 463.45V482.66C1646 480.053 1649.37 478.75 1653.05 478.75C1658.44 478.75 1662.26 479.628 1664.53 481.385C1666.85 483.142 1668.01 486.173 1668.01 490.48V513.515C1668.52 514.648 1670.31 515.215 1673.37 515.215V517H1655.01V515.215C1658.07 515.215 1659.85 514.648 1660.36 513.515V489.885C1660.36 484.388 1657.76 481.64 1652.54 481.64C1648.97 481.64 1645.77 482.887 1642.94 485.38V513.515C1643.45 514.648 1645.23 515.215 1648.29 515.215V517H1629.93Z" fill="#F5FFC9"/>
<path d="M15 412L118.635 313.717C123.65 308.96 131.511 308.96 136.526 313.717L231.215 403.516C236.231 408.273 244.091 408.273 249.107 403.516L568.235 100.867C573.251 96.1108 581.111 96.1108 586.127 100.867L685.867 195.458C690.883 200.214 698.743 200.214 703.759 195.458L803.5 100.867C808.515 96.1108 816.376 96.1108 821.391 100.867L921.132 195.458C926.147 200.214 934.008 200.214 939.023 195.458L1104 39" stroke="#F5FFC9" stroke-width="30" stroke-linecap="round"/>
<path d="M1038 34.7883H1094.58C1101.76 34.7883 1107.58 40.6086 1107.58 47.7883V101.321" stroke="#F5FFC9" stroke-width="30" stroke-linecap="round"/>
</svg>
