<svg width="1113" height="1113" viewBox="0 0 1113 1113" fill="none" xmlns="http://www.w3.org/2000/svg">
<circle cx="557" cy="557" r="530" fill="#14234C"/>
<path d="M226.912 817V800.284C255.568 800.284 272.284 794.977 277.06 784.364V383.976C272.284 373.363 255.568 368.056 226.912 368.056V351.34H400.44V368.056C371.784 368.056 355.068 373.363 350.292 383.976V784.364C355.068 794.977 371.784 800.284 400.44 800.284V817H226.912ZM710.022 370.444C664.385 370.444 625.116 391.936 592.214 434.92C559.313 477.373 542.862 528.848 542.862 589.344C542.862 625.96 547.638 658.331 557.19 686.456C566.742 714.581 579.478 736.604 595.398 752.524C611.318 767.913 628.034 779.323 645.546 786.752C663.058 794.181 680.836 797.896 698.878 797.896C728.596 797.896 756.721 792.855 783.254 782.772V619.592C778.478 608.979 761.762 603.672 733.106 603.672V586.956H906.634V603.672C877.978 603.672 861.262 608.979 856.486 619.592V753.32C847.465 770.301 829.157 786.487 801.562 801.876C774.498 817.265 739.74 824.96 697.286 824.96C626.177 824.96 568.865 801.876 525.35 755.708C481.836 709.54 460.078 654.616 460.078 590.936C460.078 517.173 485.02 457.473 534.902 411.836C584.785 366.199 642.893 343.38 709.226 343.38C724.616 343.38 743.72 347.36 766.538 355.32C789.357 363.28 802.358 367.26 805.542 367.26C811.91 367.26 815.094 361.953 815.094 351.34H833.402L841.362 452.432H823.85C820.666 429.083 808.992 409.713 788.826 394.324C768.661 378.404 742.393 370.444 710.022 370.444Z" fill="#F5FFC9"/>
</svg>
